<svg width="32" height="32" viewBox="0 0 32 32" fill="none" xmlns="http://www.w3.org/2000/svg">
<rect width="32" height="32" rx="10" fill="#270B79"/>
<path d="M24.4635 15.5812C23.5915 15.1028 20.5378 14.1131 17.997 13.3727L19.8413 11.4678L20.0414 11.6752L20.482 11.2203L20.282 11.0126L21.5572 9.69481L21.3132 9.44212L22.5884 8.125L21.5001 7L20.2245 8.31746L19.9791 8.06477L18.7028 9.38223L18.2251 8.88931L15.279 11.9362L15.6504 12.3214L18.15 9.73704L18.2594 9.84088L15.5611 12.6278C13.1259 11.5111 12.2031 12.7437 10.9413 14.4468C10.2508 15.3787 9.39092 16.539 8.05304 17.6688C7.6155 18.0375 7.16723 18.6723 7.22227 19.3487C7.24927 19.6845 7.42096 20.1601 8.03781 20.5775L6.7245 23.0134L6 23.7632L6.35862 24.1339L7.08658 23.3824L8.77338 22.4142C9.08804 22.8341 9.57335 23.1322 10.0687 23.181C11.2598 23.3 12.2692 23.7435 13.2457 24.1723C14.2139 24.5981 15.1281 25 16.0828 25C17.3417 25 18.3248 24.8293 19.365 24.6483C20.7153 24.414 22.246 24.1485 24.8311 24.1485C25.7927 24.1485 26.4705 23.3627 26.6907 21.994C27.0794 19.5862 25.9758 16.4098 24.4635 15.5812ZM14.3101 19.2466C13.9782 19.0936 13.6625 18.9485 13.4022 18.853C13.3831 18.8461 13.362 18.8402 13.343 18.8333C13.4925 18.5989 13.7964 18.2019 14.396 17.6411C14.3506 18.305 14.3233 18.9188 14.3101 19.2466ZM19.9794 8.68612L20.9563 9.69481L19.9815 10.7014L19.0047 9.69273L19.9794 8.68612ZM18.5633 10.1486L19.5402 11.1573L12.3052 18.6301C11.355 18.5695 10.2141 18.8284 9.23204 19.7873L18.5633 10.1486ZM8.50477 18.204C9.91881 17.0381 10.7915 15.8255 11.5038 14.8646C12.7306 13.209 13.3717 12.2449 15.1883 13.0134L8.77408 19.6391C8.45665 19.4518 7.70446 18.8637 8.50477 18.204ZM7.3725 22.7171L8.39677 20.8105L8.48504 20.9015C8.3745 21.2667 8.3942 21.659 8.54077 22.0113L7.3725 22.7171ZM26.1967 21.7884C26.1029 22.3727 25.3974 23.1682 24.6002 23.1682C21.9546 23.1682 20.6229 23.5579 19.2418 23.7815C16.5681 24.2139 14.5836 23.6638 13.7196 23.1131C11.554 21.7333 10.3733 22.445 9.37812 21.6783C9.05792 21.4315 9.08665 20.8285 9.39992 20.4515C10.7845 18.7893 12.5873 19.068 13.1723 19.3456C14.8563 20.1452 16.3877 20.2629 16.7972 20.1736C17.2074 20.0898 17.5702 19.8669 17.8533 19.5875C17.5314 19.824 17.1555 19.9797 16.772 20.0002C16.3895 20.0268 15.288 19.6831 15.1014 19.6031C15.0339 19.2718 14.9252 18.6813 14.9152 18.2483C15.6054 18.952 16.3642 19.1306 16.3642 19.1306L14.8878 17.1838C14.8878 17.1838 17.0478 14.8054 18.4851 14.0754C20.9047 14.7857 23.4475 15.5825 24.1793 15.9841C25.4248 16.6663 26.5325 19.7073 26.1967 21.7884Z" fill="white"/>
</svg>
