<svg width="34" height="34" viewBox="0 0 34 34" fill="none" xmlns="http://www.w3.org/2000/svg">
<path d="M33.8819 0.294057L33.0847 6.11378C31.0119 5.95434 29.4972 6.37952 28.5406 7.38933C27.5839 8.39915 26.9993 9.75443 26.7867 11.4552C26.5741 13.1559 26.5209 14.9895 26.6272 16.956H33.8819V33.7774H20.2494V13.7671C20.2494 8.87748 21.4719 5.21026 23.9167 2.76545C26.4146 0.320632 29.7364 -0.503165 33.8819 0.294057ZM13.6325 0.294057L12.8353 6.11378C10.7625 5.95434 9.24778 6.37952 8.29111 7.38933C7.33444 8.39915 6.74981 9.75443 6.53722 11.4552C6.32463 13.1559 6.27148 14.9895 6.37778 16.956H13.6325V33.7774H0V13.7671C0 8.87748 1.22241 5.21026 3.66722 2.76545C6.16519 0.320632 9.48695 -0.503165 13.6325 0.294057Z" fill="#EC642A"/>
</svg>
