<svg width="64" height="64" viewBox="0 0 64 64" fill="none" xmlns="http://www.w3.org/2000/svg">
<path fill-rule="evenodd" clip-rule="evenodd" d="M23.3376 47.0624C22.7376 46.4623 22.4006 45.6485 22.4006 44.8C22.4006 43.9515 22.7376 43.1377 23.3376 42.5376L33.8752 32L23.3376 21.4624C22.7546 20.8589 22.4321 20.0505 22.4394 19.2115C22.4467 18.3725 22.7832 17.5699 23.3765 16.9766C23.9698 16.3833 24.7724 16.0467 25.6115 16.0394C26.4505 16.0321 27.2588 16.3547 27.8624 16.9376L40.6624 29.7376C41.2623 30.3377 41.5993 31.1515 41.5993 32C41.5993 32.8485 41.2623 33.6623 40.6624 34.2624L27.8624 47.0624C27.2623 47.6623 26.4485 47.9993 25.6 47.9993C24.7514 47.9993 23.9376 47.6623 23.3376 47.0624Z" fill="white"/>
</svg>
