<svg width="64" height="64" viewBox="0 0 64 64" fill="none" xmlns="http://www.w3.org/2000/svg">
<path fill-rule="evenodd" clip-rule="evenodd" d="M40.6624 16.9376C41.2623 17.5377 41.5993 18.3515 41.5993 19.2C41.5993 20.0486 41.2623 20.8624 40.6624 21.4624L30.1248 32L40.6624 42.5376C41.2453 43.1412 41.5678 43.9495 41.5606 44.7885C41.5533 45.6276 41.2167 46.4302 40.6234 47.0235C40.0301 47.6168 39.2275 47.9533 38.3885 47.9606C37.5495 47.9679 36.7411 47.6454 36.1376 47.0624L23.3376 34.2624C22.7377 33.6624 22.4007 32.8486 22.4007 32C22.4007 31.1515 22.7377 30.3377 23.3376 29.7376L36.1376 16.9376C36.7377 16.3377 37.5515 16.0007 38.4 16.0007C39.2485 16.0007 40.0623 16.3377 40.6624 16.9376V16.9376Z" fill="white"/>
</svg>
