<svg width="301" height="440" viewBox="0 0 301 440" fill="none" xmlns="http://www.w3.org/2000/svg">
<path d="M227.891 69.7023V71.0826H229.272H297.274V371.286H1.89694V34.8512V1.38024H227.891V69.7023ZM230.652 68.3221V3.34309L262.985 35.8249L295.332 68.3221H230.652Z" fill="#270B79" stroke="white" stroke-width="2.76049"/>
<path d="M229.272 69.7023V0.983246L297.967 69.7023H229.272Z" fill="white"/>
<path d="M54.4587 166.634C54.7323 166.818 55.325 167.14 56.2369 167.599C57.1487 168.059 58.2886 168.518 59.6564 168.978C61.0242 169.437 62.5744 169.85 64.3069 170.218C66.1307 170.586 68 170.769 69.915 170.769C72.7418 170.769 75.0214 170.31 76.754 169.391C78.4866 168.472 79.8088 167.002 80.7206 164.98C81.6325 162.867 82.2252 160.202 82.4988 156.986C82.7724 153.678 82.9091 149.681 82.9091 144.995V95.2369H109.581V144.995C109.581 152.438 109.171 159.237 108.35 165.394C107.53 171.459 105.752 176.65 103.016 180.969C100.28 185.288 96.2681 188.642 90.9792 191.031C85.7815 193.42 78.7601 194.614 69.915 194.614C61.7081 194.614 54.6867 192.593 48.8507 188.55L54.4587 166.634Z" fill="white"/>
<path d="M144.131 95.2369H169.029L203.438 194.614H175.743L169.728 175.159H143.291L137.417 194.614H109.581L144.131 95.2369ZM165.392 156.963L156.58 126.17L147.348 156.963H165.392Z" fill="white"/>
<path d="M81.6863 209.797L98.9576 242.233L116.637 209.797H145.468L112.149 275.083V307.795H85.7661V275.083L52.9914 209.797H81.6863Z" fill="white"/>
<path d="M117.863 307.795V209.797H145.468V247.064L174.591 209.797H204.956L169.346 253.689L207.441 307.795H176.523L152.231 271.77L145.468 279.5V307.795H117.863Z" fill="#EC642A"/>
<path d="M17.1768 394.997H28.1699L43.3626 438.846H31.1343L28.4787 430.261H16.8063L14.2124 438.846H1.92239L17.1768 394.997ZM26.5642 422.233L22.6734 408.646L18.5973 422.233H26.5642Z" fill="white"/>
<path d="M42.788 416.551C42.788 413.875 43.282 411.24 44.2702 408.646C45.2995 406.052 46.7817 403.726 48.7168 401.667C50.6519 399.608 52.9988 397.941 55.7573 396.664C58.5159 395.388 61.6656 394.75 65.2064 394.75C69.4472 394.75 73.1116 395.635 76.1995 397.406C79.3286 399.135 81.6549 401.44 83.1783 404.323L73.9762 410.869C73.5645 409.799 73.0086 408.913 72.3087 408.213C71.6499 407.513 70.9088 406.958 70.0854 406.546C69.2619 406.134 68.3973 405.846 67.4915 405.681C66.6269 405.517 65.7828 405.434 64.9594 405.434C63.2301 405.434 61.7273 405.784 60.451 406.484C59.2158 407.143 58.1865 408.028 57.3631 409.14C56.5808 410.21 55.9838 411.445 55.572 412.845C55.2015 414.204 55.0162 415.563 55.0162 416.921C55.0162 418.445 55.2427 419.906 55.6956 421.306C56.1485 422.706 56.8072 423.941 57.6718 425.012C58.5365 426.082 59.5864 426.947 60.8215 427.606C62.0979 428.223 63.5184 428.532 65.0829 428.532C65.9064 428.532 66.7504 428.45 67.615 428.285C68.4797 428.079 69.3031 427.77 70.0854 427.359C70.9088 426.906 71.6294 426.35 72.2469 425.691C72.9057 424.991 73.4204 424.147 73.7909 423.159L83.6106 429.026C82.9518 430.632 81.9431 432.073 80.5844 433.349C79.2669 434.626 77.7435 435.696 76.0142 436.561C74.3262 437.425 72.494 438.084 70.5177 438.537C68.5826 438.99 66.6886 439.216 64.8359 439.216C61.5832 439.216 58.5982 438.578 55.8808 437.302C53.2046 435.984 50.8784 434.255 48.9021 432.114C46.967 429.973 45.4642 427.544 44.3937 424.827C43.3232 422.109 42.788 419.351 42.788 416.551Z" fill="white"/>
<path d="M98.5972 394.997H109.59L124.783 438.846H112.555L109.899 430.261H98.2267L95.6328 438.846H83.3428L98.5972 394.997ZM107.985 422.233L104.094 408.646L100.018 422.233H107.985Z" fill="white"/>
<path d="M128.426 438.846V394.997H145.286C148.91 394.997 152.101 395.573 154.859 396.726C157.618 397.879 159.923 399.444 161.776 401.42C163.629 403.396 165.029 405.722 165.976 408.399C166.923 411.034 167.396 413.854 167.396 416.86C167.396 420.195 166.861 423.221 165.79 425.938C164.761 428.614 163.279 430.92 161.344 432.855C159.409 434.749 157.082 436.231 154.365 437.302C151.648 438.331 148.621 438.846 145.286 438.846H128.426ZM155.168 416.86C155.168 415.172 154.941 413.628 154.489 412.228C154.036 410.828 153.377 409.634 152.512 408.646C151.689 407.658 150.66 406.896 149.424 406.361C148.189 405.784 146.81 405.496 145.286 405.496H140.469V428.347H145.286C146.851 428.347 148.251 428.059 149.486 427.482C150.721 426.906 151.751 426.103 152.574 425.074C153.439 424.044 154.077 422.83 154.489 421.43C154.941 420.03 155.168 418.507 155.168 416.86Z" fill="white"/>
<path d="M203.885 428.347V438.846H172.635V394.997H203.329V405.496H184.678V411.672H200.611V421.43H184.678V428.347H203.885Z" fill="white"/>
<path d="M242.649 438.846V415.748L235.3 431.991H228.877L221.528 415.748V438.846H209.485V394.997H222.639L232.089 415.624L241.599 394.997H254.692V438.846H242.649Z" fill="white"/>
<path d="M271.09 394.997L278.934 413.957L286.962 394.997H300.055L284.924 424.332V438.846H272.943V424.209L258.059 394.997H271.09Z" fill="white"/>
</svg>
