<svg width="299" height="440" viewBox="0 0 299 440" fill="none" xmlns="http://www.w3.org/2000/svg">
<path d="M227.891 69.7023V71.0826H229.272H297.274V371.286H1.89685V34.8512V1.38024H227.891V69.7023ZM230.652 68.3221V3.34309L262.984 35.8249L295.332 68.3221H230.652Z" fill="white" stroke="#270B79" stroke-width="2.76049"/>
<path d="M229.272 69.7023V0.983246L297.967 69.7023H229.272Z" fill="#270B79"/>
<path d="M54.4586 166.634C54.7322 166.818 55.3249 167.14 56.2368 167.599C57.1486 168.059 58.2885 168.518 59.6563 168.978C61.0241 169.437 62.5743 169.85 64.3068 170.218C66.1306 170.586 67.9999 170.769 69.9149 170.769C72.7417 170.769 75.0213 170.31 76.7539 169.391C78.4865 168.472 79.8087 167.002 80.7206 164.98C81.6324 162.867 82.2251 160.202 82.4987 156.986C82.7723 153.678 82.909 149.681 82.909 144.995V95.2369H109.581V144.995C109.581 152.438 109.171 159.237 108.35 165.394C107.53 171.459 105.751 176.65 103.016 180.969C100.28 185.288 96.268 188.642 90.9791 191.031C85.7815 193.42 78.76 194.614 69.9149 194.614C61.708 194.614 54.6866 192.593 48.8506 188.55L54.4586 166.634Z" fill="#270B79"/>
<path d="M144.131 95.2369H169.029L203.438 194.614H175.743L169.728 175.159H143.291L137.417 194.614H109.581L144.131 95.2369ZM165.392 156.963L156.58 126.17L147.348 156.963H165.392Z" fill="#270B79"/>
<path d="M81.6862 209.797L98.9575 242.233L116.637 209.797H145.468L112.149 275.083V307.795H85.7661V275.083L52.9913 209.797H81.6862Z" fill="#270B79"/>
<path d="M117.863 307.795V209.797H145.468V247.064L174.591 209.797H204.956L169.346 253.689L207.441 307.795H176.523L152.231 271.77L145.468 279.5V307.795H117.863Z" fill="#EC642A"/>
<path d="M15.7754 394.997H26.7685L41.9612 438.846H29.733L27.0773 430.261H15.4049L12.811 438.846H0.520996L15.7754 394.997ZM25.1628 422.233L21.272 408.646L17.1959 422.233H25.1628Z" fill="#270B79"/>
<path d="M41.3866 416.551C41.3866 413.875 41.8806 411.24 42.8688 408.646C43.8981 406.052 45.3803 403.726 47.3154 401.667C49.2505 399.608 51.5974 397.941 54.3559 396.664C57.1145 395.388 60.2642 394.75 63.805 394.75C68.0458 394.75 71.7102 395.635 74.7981 397.406C77.9272 399.135 80.2535 401.44 81.7769 404.323L72.5748 410.869C72.1631 409.799 71.6072 408.913 70.9073 408.213C70.2485 407.513 69.5074 406.958 68.684 406.546C67.8605 406.134 66.9959 405.846 66.0901 405.681C65.2255 405.517 64.3815 405.434 63.558 405.434C61.8288 405.434 60.326 405.784 59.0496 406.484C57.8144 407.143 56.7851 408.028 55.9617 409.14C55.1794 410.21 54.5824 411.445 54.1707 412.845C53.8001 414.204 53.6148 415.563 53.6148 416.921C53.6148 418.445 53.8413 419.906 54.2942 421.306C54.7471 422.706 55.4058 423.941 56.2705 425.012C57.1351 426.082 58.185 426.947 59.4202 427.606C60.6965 428.223 62.117 428.532 63.6815 428.532C64.505 428.532 65.349 428.45 66.2136 428.285C67.0783 428.079 67.9017 427.77 68.684 427.359C69.5074 426.906 70.228 426.35 70.8456 425.691C71.5043 424.991 72.019 424.147 72.3895 423.159L82.2092 429.026C81.5504 430.632 80.5417 432.073 79.183 433.349C77.8655 434.626 76.3421 435.696 74.6128 436.561C72.9248 437.425 71.0926 438.084 69.1163 438.537C67.1812 438.99 65.2872 439.216 63.4345 439.216C60.1818 439.216 57.1968 438.578 54.4794 437.302C51.8032 435.984 49.477 434.255 47.5007 432.114C45.5656 429.973 44.0628 427.544 42.9923 424.827C41.9218 422.109 41.3866 419.351 41.3866 416.551Z" fill="#270B79"/>
<path d="M97.1958 394.997H108.189L123.382 438.846H111.153L108.498 430.261H96.8253L94.2314 438.846H81.9414L97.1958 394.997ZM106.583 422.233L102.692 408.646L98.6163 422.233H106.583Z" fill="#270B79"/>
<path d="M127.025 438.846V394.997H143.885C147.508 394.997 150.699 395.573 153.458 396.726C156.216 397.879 158.522 399.444 160.375 401.42C162.227 403.396 163.627 405.722 164.574 408.399C165.521 411.034 165.995 413.854 165.995 416.86C165.995 420.195 165.46 423.221 164.389 425.938C163.36 428.614 161.878 430.92 159.942 432.855C158.007 434.749 155.681 436.231 152.964 437.302C150.246 438.331 147.22 438.846 143.885 438.846H127.025ZM153.767 416.86C153.767 415.172 153.54 413.628 153.087 412.228C152.634 410.828 151.975 409.634 151.111 408.646C150.287 407.658 149.258 406.896 148.023 406.361C146.788 405.784 145.408 405.496 143.885 405.496H139.068V428.347H143.885C145.45 428.347 146.85 428.059 148.085 427.482C149.32 426.906 150.349 426.103 151.173 425.074C152.037 424.044 152.675 422.83 153.087 421.43C153.54 420.03 153.767 418.507 153.767 416.86Z" fill="#270B79"/>
<path d="M202.483 428.347V438.846H171.233V394.997H201.927V405.496H183.276V411.672H199.21V421.43H183.276V428.347H202.483Z" fill="#270B79"/>
<path d="M241.248 438.846V415.748L233.899 431.991H227.476L220.126 415.748V438.846H208.083V394.997H221.238L230.687 415.624L240.198 394.997H253.291V438.846H241.248Z" fill="#270B79"/>
<path d="M269.689 394.997L277.532 413.957L285.561 394.997H298.654L283.523 424.332V438.846H271.542V424.209L256.658 394.997H269.689Z" fill="#270B79"/>
</svg>
