<svg width="0" height="0" class="hidden">
  <symbol fill="none" xmlns="http://www.w3.org/2000/svg" viewBox="0 0 13 11" id="icon-arrow">
    <path d="M0 5H11.5M11.5 5L7 1M11.5 5L7 9.5" stroke="#270B79" stroke-width="2"></path>
  </symbol>
  <symbol fill="none" xmlns="http://www.w3.org/2000/svg" viewBox="0 0 32 32" id="icon-feature">
    <rect width="32" height="32" rx="10" fill="#270B79"></rect>
    <path d="M24.4635 15.5812C23.5915 15.1028 20.5378 14.1131 17.997 13.3727L19.8413 11.4678L20.0414 11.6752L20.482 11.2203L20.282 11.0126L21.5572 9.69481L21.3132 9.44212L22.5884 8.125L21.5001 7L20.2245 8.31746L19.9791 8.06477L18.7028 9.38223L18.2251 8.88931L15.279 11.9362L15.6504 12.3214L18.15 9.73704L18.2594 9.84088L15.5611 12.6278C13.1259 11.5111 12.2031 12.7437 10.9413 14.4468C10.2508 15.3787 9.39092 16.539 8.05304 17.6688C7.6155 18.0375 7.16723 18.6723 7.22227 19.3487C7.24927 19.6845 7.42096 20.1601 8.03781 20.5775L6.7245 23.0134L6 23.7632L6.35862 24.1339L7.08658 23.3824L8.77338 22.4142C9.08804 22.8341 9.57335 23.1322 10.0687 23.181C11.2598 23.3 12.2692 23.7435 13.2457 24.1723C14.2139 24.5981 15.1281 25 16.0828 25C17.3417 25 18.3248 24.8293 19.365 24.6483C20.7153 24.414 22.246 24.1485 24.8311 24.1485C25.7927 24.1485 26.4705 23.3627 26.6907 21.994C27.0794 19.5862 25.9758 16.4098 24.4635 15.5812ZM14.3101 19.2466C13.9782 19.0936 13.6625 18.9485 13.4022 18.853C13.3831 18.8461 13.362 18.8402 13.343 18.8333C13.4925 18.5989 13.7964 18.2019 14.396 17.6411C14.3506 18.305 14.3233 18.9188 14.3101 19.2466ZM19.9794 8.68612L20.9563 9.69481L19.9815 10.7014L19.0047 9.69273L19.9794 8.68612ZM18.5633 10.1486L19.5402 11.1573L12.3052 18.6301C11.355 18.5695 10.2141 18.8284 9.23204 19.7873L18.5633 10.1486ZM8.50477 18.204C9.91881 17.0381 10.7915 15.8255 11.5038 14.8646C12.7306 13.209 13.3717 12.2449 15.1883 13.0134L8.77408 19.6391C8.45665 19.4518 7.70446 18.8637 8.50477 18.204ZM7.3725 22.7171L8.39677 20.8105L8.48504 20.9015C8.3745 21.2667 8.3942 21.659 8.54077 22.0113L7.3725 22.7171ZM26.1967 21.7884C26.1029 22.3727 25.3974 23.1682 24.6002 23.1682C21.9546 23.1682 20.6229 23.5579 19.2418 23.7815C16.5681 24.2139 14.5836 23.6638 13.7196 23.1131C11.554 21.7333 10.3733 22.445 9.37812 21.6783C9.05792 21.4315 9.08665 20.8285 9.39992 20.4515C10.7845 18.7893 12.5873 19.068 13.1723 19.3456C14.8563 20.1452 16.3877 20.2629 16.7972 20.1736C17.2074 20.0898 17.5702 19.8669 17.8533 19.5875C17.5314 19.824 17.1555 19.9797 16.772 20.0002C16.3895 20.0268 15.288 19.6831 15.1014 19.6031C15.0339 19.2718 14.9252 18.6813 14.9152 18.2483C15.6054 18.952 16.3642 19.1306 16.3642 19.1306L14.8878 17.1838C14.8878 17.1838 17.0478 14.8054 18.4851 14.0754C20.9047 14.7857 23.4475 15.5825 24.1793 15.9841C25.4248 16.6663 26.5325 19.7073 26.1967 21.7884Z" fill="white"></path>
  </symbol>
    <symbol fill="none" xmlns="http://www.w3.org/2000/svg" viewBox="0 0 18 15" id="icon-star">
    <path d="M8.72727 0L11.0357 5.20317L17.0274 5.6535L12.4623 9.31956L13.857 14.8011L8.72727 11.8636L3.59751 14.8011L4.99222 9.31956L0.427143 5.6535L6.41888 5.20317L8.72727 0Z" fill="#EC642A"></path>
  </symbol>
  <symbol fill="none" xmlns="http://www.w3.org/2000/svg" viewBox="0 0 34 34" id="icon-quote">
    <path d="M33.8819 0.294057L33.0847 6.11378C31.0119 5.95434 29.4972 6.37952 28.5406 7.38933C27.5839 8.39915 26.9993 9.75443 26.7867 11.4552C26.5741 13.1559 26.5209 14.9895 26.6272 16.956H33.8819V33.7774H20.2494V13.7671C20.2494 8.87748 21.4719 5.21026 23.9167 2.76545C26.4146 0.320632 29.7364 -0.503165 33.8819 0.294057ZM13.6325 0.294057L12.8353 6.11378C10.7625 5.95434 9.24778 6.37952 8.29111 7.38933C7.33444 8.39915 6.74981 9.75443 6.53722 11.4552C6.32463 13.1559 6.27148 14.9895 6.37778 16.956H13.6325V33.7774H0V13.7671C0 8.87748 1.22241 5.21026 3.66722 2.76545C6.16519 0.320632 9.48695 -0.503165 13.6325 0.294057Z" fill="#EC642A"></path>
  </symbol>
    <symbol fill="none" xmlns="http://www.w3.org/2000/svg" viewBox="0 0 13 3" id="icon-minus">
    <path d="M1.5 1.5H11.5" stroke="#270B79" stroke-width="2" stroke-linecap="round" stroke-linejoin="round"></path>
  </symbol>
  <symbol fill="none" xmlns="http://www.w3.org/2000/svg" viewBox="0 0 13 13" id="icon-plus">
    <path d="M1.5 6.5H11.5" stroke="#270B79" stroke-width="2" stroke-linecap="round" stroke-linejoin="round"></path>
    <path d="M6.5 1.5L6.5 11.5" stroke="#270B79" stroke-width="2" stroke-linecap="round" stroke-linejoin="round"></path>
  </symbol>  <symbol fill="none" xmlns="http://www.w3.org/2000/svg" viewBox="0 0 301 440" id="logo">
    <path d="M227.891 69.7023V71.0826H229.272H297.274V371.286H1.89694V34.8512V1.38024H227.891V69.7023ZM230.652 68.3221V3.34309L262.985 35.8249L295.332 68.3221H230.652Z" fill="#270B79" stroke="white" stroke-width="2.76049"></path>
    <path d="M229.272 69.7023V0.983246L297.967 69.7023H229.272Z" fill="white"></path>
    <path d="M54.4587 166.634C54.7323 166.818 55.325 167.14 56.2369 167.599C57.1487 168.059 58.2886 168.518 59.6564 168.978C61.0242 169.437 62.5744 169.85 64.3069 170.218C66.1307 170.586 68 170.769 69.915 170.769C72.7418 170.769 75.0214 170.31 76.754 169.391C78.4866 168.472 79.8088 167.002 80.7206 164.98C81.6325 162.867 82.2252 160.202 82.4988 156.986C82.7724 153.678 82.9091 149.681 82.9091 144.995V95.2369H109.581V144.995C109.581 152.438 109.171 159.237 108.35 165.394C107.53 171.459 105.752 176.65 103.016 180.969C100.28 185.288 96.2681 188.642 90.9792 191.031C85.7815 193.42 78.7601 194.614 69.915 194.614C61.7081 194.614 54.6867 192.593 48.8507 188.55L54.4587 166.634Z" fill="white"></path>
    <path d="M144.131 95.2369H169.029L203.438 194.614H175.743L169.728 175.159H143.291L137.417 194.614H109.581L144.131 95.2369ZM165.392 156.963L156.58 126.17L147.348 156.963H165.392Z" fill="white"></path>
    <path d="M81.6863 209.797L98.9576 242.233L116.637 209.797H145.468L112.149 275.083V307.795H85.7661V275.083L52.9914 209.797H81.6863Z" fill="white"></path>
    <path d="M117.863 307.795V209.797H145.468V247.064L174.591 209.797H204.956L169.346 253.689L207.441 307.795H176.523L152.231 271.77L145.468 279.5V307.795H117.863Z" fill="#EC642A"></path>
    <path d="M17.1768 394.997H28.1699L43.3626 438.846H31.1343L28.4787 430.261H16.8063L14.2124 438.846H1.92239L17.1768 394.997ZM26.5642 422.233L22.6734 408.646L18.5973 422.233H26.5642Z" fill="#270B79"></path>
    <path d="M42.788 416.551C42.788 413.875 43.282 411.24 44.2702 408.646C45.2995 406.052 46.7817 403.726 48.7168 401.667C50.6519 399.608 52.9988 397.941 55.7573 396.664C58.5159 395.388 61.6656 394.75 65.2064 394.75C69.4472 394.75 73.1116 395.635 76.1995 397.406C79.3286 399.135 81.6549 401.44 83.1783 404.323L73.9762 410.869C73.5645 409.799 73.0086 408.913 72.3087 408.213C71.6499 407.513 70.9088 406.958 70.0854 406.546C69.2619 406.134 68.3973 405.846 67.4915 405.681C66.6269 405.517 65.7828 405.434 64.9594 405.434C63.2301 405.434 61.7273 405.784 60.451 406.484C59.2158 407.143 58.1865 408.028 57.3631 409.14C56.5808 410.21 55.9838 411.445 55.572 412.845C55.2015 414.204 55.0162 415.563 55.0162 416.921C55.0162 418.445 55.2427 419.906 55.6956 421.306C56.1485 422.706 56.8072 423.941 57.6718 425.012C58.5365 426.082 59.5864 426.947 60.8215 427.606C62.0979 428.223 63.5184 428.532 65.0829 428.532C65.9064 428.532 66.7504 428.45 67.615 428.285C68.4797 428.079 69.3031 427.77 70.0854 427.359C70.9088 426.906 71.6294 426.35 72.2469 425.691C72.9057 424.991 73.4204 424.147 73.7909 423.159L83.6106 429.026C82.9518 430.632 81.9431 432.073 80.5844 433.349C79.2669 434.626 77.7435 435.696 76.0142 436.561C74.3262 437.425 72.494 438.084 70.5177 438.537C68.5826 438.99 66.6886 439.216 64.8359 439.216C61.5832 439.216 58.5982 438.578 55.8808 437.302C53.2046 435.984 50.8784 434.255 48.9021 432.114C46.967 429.973 45.4642 427.544 44.3937 424.827C43.3232 422.109 42.788 419.351 42.788 416.551Z" fill="#270B79"></path>
    <path d="M98.5972 394.997H109.59L124.783 438.846H112.555L109.899 430.261H98.2267L95.6328 438.846H83.3428L98.5972 394.997ZM107.985 422.233L104.094 408.646L100.018 422.233H107.985Z" fill="#270B79"></path>
    <path d="M128.426 438.846V394.997H145.286C148.91 394.997 152.101 395.573 154.859 396.726C157.618 397.879 159.923 399.444 161.776 401.42C163.629 403.396 165.029 405.722 165.976 408.399C166.923 411.034 167.396 413.854 167.396 416.86C167.396 420.195 166.861 423.221 165.79 425.938C164.761 428.614 163.279 430.92 161.344 432.855C159.409 434.749 157.082 436.231 154.365 437.302C151.648 438.331 148.621 438.846 145.286 438.846H128.426ZM155.168 416.86C155.168 415.172 154.941 413.628 154.489 412.228C154.036 410.828 153.377 409.634 152.512 408.646C151.689 407.658 150.66 406.896 149.424 406.361C148.189 405.784 146.81 405.496 145.286 405.496H140.469V428.347H145.286C146.851 428.347 148.251 428.059 149.486 427.482C150.721 426.906 151.751 426.103 152.574 425.074C153.439 424.044 154.077 422.83 154.489 421.43C154.941 420.03 155.168 418.507 155.168 416.86Z" fill="#270B79"></path>
    <path d="M203.885 428.347V438.846H172.635V394.997H203.329V405.496H184.678V411.672H200.611V421.43H184.678V428.347H203.885Z" fill="#270B79"></path>
    <path d="M242.649 438.846V415.748L235.3 431.991H228.877L221.528 415.748V438.846H209.485V394.997H222.639L232.089 415.624L241.599 394.997H254.692V438.846H242.649Z" fill="#270B79"></path>
    <path d="M271.09 394.997L278.934 413.957L286.962 394.997H300.055L284.924 424.332V438.846H272.943V424.209L258.059 394.997H271.09Z" fill="#270B79"></path>
  </symbol>
   <symbol fill="none" xmlns="http://www.w3.org/2000/svg" viewBox="0 0 299 440" id="logo-white">
    <path d="M227.891 69.7023V71.0826H229.272H297.274V371.286H1.89685V34.8512V1.38024H227.891V69.7023ZM230.652 68.3221V3.34309L262.984 35.8249L295.332 68.3221H230.652Z" fill="white" stroke="#270B79" stroke-width="2.76049"></path>
    <path d="M229.272 69.7023V0.983246L297.967 69.7023H229.272Z" fill="#270B79"></path>
    <path d="M54.4586 166.634C54.7322 166.818 55.3249 167.14 56.2368 167.599C57.1486 168.059 58.2885 168.518 59.6563 168.978C61.0241 169.437 62.5743 169.85 64.3068 170.218C66.1306 170.586 67.9999 170.769 69.9149 170.769C72.7417 170.769 75.0213 170.31 76.7539 169.391C78.4865 168.472 79.8087 167.002 80.7206 164.98C81.6324 162.867 82.2251 160.202 82.4987 156.986C82.7723 153.678 82.909 149.681 82.909 144.995V95.2369H109.581V144.995C109.581 152.438 109.171 159.237 108.35 165.394C107.53 171.459 105.751 176.65 103.016 180.969C100.28 185.288 96.268 188.642 90.9791 191.031C85.7815 193.42 78.76 194.614 69.9149 194.614C61.708 194.614 54.6866 192.593 48.8506 188.55L54.4586 166.634Z" fill="#270B79"></path>
    <path d="M144.131 95.2369H169.029L203.438 194.614H175.743L169.728 175.159H143.291L137.417 194.614H109.581L144.131 95.2369ZM165.392 156.963L156.58 126.17L147.348 156.963H165.392Z" fill="#270B79"></path>
    <path d="M81.6862 209.797L98.9575 242.233L116.637 209.797H145.468L112.149 275.083V307.795H85.7661V275.083L52.9913 209.797H81.6862Z" fill="#270B79"></path>
    <path d="M117.863 307.795V209.797H145.468V247.064L174.591 209.797H204.956L169.346 253.689L207.441 307.795H176.523L152.231 271.77L145.468 279.5V307.795H117.863Z" fill="#EC642A"></path>
    <path d="M15.7754 394.997H26.7685L41.9612 438.846H29.733L27.0773 430.261H15.4049L12.811 438.846H0.520996L15.7754 394.997ZM25.1628 422.233L21.272 408.646L17.1959 422.233H25.1628Z" fill="#270B79"></path>
    <path d="M41.3866 416.551C41.3866 413.875 41.8806 411.24 42.8688 408.646C43.8981 406.052 45.3803 403.726 47.3154 401.667C49.2505 399.608 51.5974 397.941 54.3559 396.664C57.1145 395.388 60.2642 394.75 63.805 394.75C68.0458 394.75 71.7102 395.635 74.7981 397.406C77.9272 399.135 80.2535 401.44 81.7769 404.323L72.5748 410.869C72.1631 409.799 71.6072 408.913 70.9073 408.213C70.2485 407.513 69.5074 406.958 68.684 406.546C67.8605 406.134 66.9959 405.846 66.0901 405.681C65.2255 405.517 64.3815 405.434 63.558 405.434C61.8288 405.434 60.326 405.784 59.0496 406.484C57.8144 407.143 56.7851 408.028 55.9617 409.14C55.1794 410.21 54.5824 411.445 54.1707 412.845C53.8001 414.204 53.6148 415.563 53.6148 416.921C53.6148 418.445 53.8413 419.906 54.2942 421.306C54.7471 422.706 55.4058 423.941 56.2705 425.012C57.1351 426.082 58.185 426.947 59.4202 427.606C60.6965 428.223 62.117 428.532 63.6815 428.532C64.505 428.532 65.349 428.45 66.2136 428.285C67.0783 428.079 67.9017 427.77 68.684 427.359C69.5074 426.906 70.228 426.35 70.8456 425.691C71.5043 424.991 72.019 424.147 72.3895 423.159L82.2092 429.026C81.5504 430.632 80.5417 432.073 79.183 433.349C77.8655 434.626 76.3421 435.696 74.6128 436.561C72.9248 437.425 71.0926 438.084 69.1163 438.537C67.1812 438.99 65.2872 439.216 63.4345 439.216C60.1818 439.216 57.1968 438.578 54.4794 437.302C51.8032 435.984 49.477 434.255 47.5007 432.114C45.5656 429.973 44.0628 427.544 42.9923 424.827C41.9218 422.109 41.3866 419.351 41.3866 416.551Z" fill="#270B79"></path>
    <path d="M97.1958 394.997H108.189L123.382 438.846H111.153L108.498 430.261H96.8253L94.2314 438.846H81.9414L97.1958 394.997ZM106.583 422.233L102.692 408.646L98.6163 422.233H106.583Z" fill="#270B79"></path>
    <path d="M127.025 438.846V394.997H143.885C147.508 394.997 150.699 395.573 153.458 396.726C156.216 397.879 158.522 399.444 160.375 401.42C162.227 403.396 163.627 405.722 164.574 408.399C165.521 411.034 165.995 413.854 165.995 416.86C165.995 420.195 165.46 423.221 164.389 425.938C163.36 428.614 161.878 430.92 159.942 432.855C158.007 434.749 155.681 436.231 152.964 437.302C150.246 438.331 147.22 438.846 143.885 438.846H127.025ZM153.767 416.86C153.767 415.172 153.54 413.628 153.087 412.228C152.634 410.828 151.975 409.634 151.111 408.646C150.287 407.658 149.258 406.896 148.023 406.361C146.788 405.784 145.408 405.496 143.885 405.496H139.068V428.347H143.885C145.45 428.347 146.85 428.059 148.085 427.482C149.32 426.906 150.349 426.103 151.173 425.074C152.037 424.044 152.675 422.83 153.087 421.43C153.54 420.03 153.767 418.507 153.767 416.86Z" fill="#270B79"></path>
    <path d="M202.483 428.347V438.846H171.233V394.997H201.927V405.496H183.276V411.672H199.21V421.43H183.276V428.347H202.483Z" fill="#270B79"></path>
    <path d="M241.248 438.846V415.748L233.899 431.991H227.476L220.126 415.748V438.846H208.083V394.997H221.238L230.687 415.624L240.198 394.997H253.291V438.846H241.248Z" fill="#270B79"></path>
    <path d="M269.689 394.997L277.532 413.957L285.561 394.997H298.654L283.523 424.332V438.846H271.542V424.209L256.658 394.997H269.689Z" fill="#270B79"></path>
  </symbol>  
  <symbol fill="none" xmlns="http://www.w3.org/2000/svg" viewBox="0 0 25 25" id="icon-close">
    <path d="M18.1772 6.46071L6.17725 18.4607" stroke="#270B79" stroke-width="2" stroke-linecap="round" stroke-linejoin="round"></path>
    <path d="M6.17725 6.46071L18.1772 18.4607" stroke="#270B79" stroke-width="2" stroke-linecap="round" stroke-linejoin="round"></path>
  </symbol> 
  <symbol fill="none" xmlns="http://www.w3.org/2000/svg" viewBox="0 0 24 24" id="icon-menu">
    <path d="M3 12H21" stroke="#270B79" stroke-width="2" stroke-linecap="round" stroke-linejoin="round"></path>
    <path d="M3 6H21" stroke="#270B79" stroke-width="2" stroke-linecap="round" stroke-linejoin="round"></path>
    <path d="M3 18H21" stroke="#270B79" stroke-width="2" stroke-linecap="round" stroke-linejoin="round"></path>
  </symbol>
  <symbol fill="none" xmlns="http://www.w3.org/2000/svg" viewBox="0 0 64 64" id="icon-chevron-left">
    <path fill-rule="evenodd" clip-rule="evenodd" d="M40.6624 16.9376C41.2623 17.5377 41.5993 18.3515 41.5993 19.2C41.5993 20.0486 41.2623 20.8624 40.6624 21.4624L30.1248 32L40.6624 42.5376C41.2453 43.1412 41.5678 43.9495 41.5606 44.7885C41.5533 45.6276 41.2167 46.4302 40.6234 47.0235C40.0301 47.6168 39.2275 47.9533 38.3885 47.9606C37.5495 47.9679 36.7411 47.6454 36.1376 47.0624L23.3376 34.2624C22.7377 33.6624 22.4007 32.8486 22.4007 32C22.4007 31.1515 22.7377 30.3377 23.3376 29.7376L36.1376 16.9376C36.7377 16.3377 37.5515 16.0007 38.4 16.0007C39.2485 16.0007 40.0623 16.3377 40.6624 16.9376V16.9376Z" fill="white"></path>
  </symbol>
  <symbol fill="none" xmlns="http://www.w3.org/2000/svg" viewBox="0 0 64 64" id="icon-chevron-right">
    <path fill-rule="evenodd" clip-rule="evenodd" d="M23.3376 47.0624C22.7376 46.4623 22.4006 45.6485 22.4006 44.8C22.4006 43.9515 22.7376 43.1377 23.3376 42.5376L33.8752 32L23.3376 21.4624C22.7546 20.8589 22.4321 20.0505 22.4394 19.2115C22.4467 18.3725 22.7832 17.5699 23.3765 16.9766C23.9698 16.3833 24.7724 16.0467 25.6115 16.0394C26.4505 16.0321 27.2588 16.3547 27.8624 16.9376L40.6624 29.7376C41.2623 30.3377 41.5993 31.1515 41.5993 32C41.5993 32.8485 41.2623 33.6623 40.6624 34.2624L27.8624 47.0624C27.2623 47.6623 26.4485 47.9993 25.6 47.9993C24.7514 47.9993 23.9376 47.6623 23.3376 47.0624Z" fill="white"></path>
  </symbol>
</svg>